<?xml version="1.0" standalone="no"?>
<!DOCTYPE svg PUBLIC "-//W3C//DTD SVG 20010904//EN"
 "http://www.w3.org/TR/2001/REC-SVG-20010904/DTD/svg10.dtd">
<svg version="1.0" xmlns="http://www.w3.org/2000/svg"
 width="671.000000pt" height="671.000000pt" viewBox="0 0 671.000000 671.000000"
 preserveAspectRatio="xMidYMid meet">

<g transform="translate(0.000000,671.000000) scale(0.100000,-0.100000)"
fill="#000000" stroke="none">
<path d="M3070 6529 c-735 -64 -1437 -395 -1970 -929 -432 -431 -722 -959
-854 -1557 -63 -284 -70 -354 -70 -698 0 -360 13 -470 88 -766 72 -282 135
-451 257 -689 149 -293 364 -587 591 -807 l53 -53 193 231 192 231 -97 102
c-703 738 -965 1835 -676 2831 202 695 689 1327 1311 1698 372 222 682 330
1167 405 l60 9 -75 0 c-41 0 -118 -3 -170 -8z"/>
<path d="M4359 5828 c-152 -290 -425 -669 -677 -941 -94 -101 -101 -111 -107
-160 -12 -93 -111 -735 -224 -1458 -61 -388 -111 -711 -111 -718 0 -7 4 -11 9
-9 16 5 731 764 755 801 10 14 46 213 96 533 45 280 110 689 146 909 118 727
180 1145 172 1145 -3 0 -30 -46 -59 -102z"/>
<path d="M3161 4415 c-127 -98 -315 -227 -479 -329 -51 -32 -99 -68 -107 -80
-7 -11 -30 -127 -50 -256 -19 -129 -72 -466 -116 -749 -44 -282 -79 -520 -77
-529 2 -10 62 53 163 171 88 103 163 187 168 187 5 0 61 -44 125 -98 150 -126
191 -156 199 -148 11 11 135 763 253 1531 27 182 52 345 55 363 3 17 2 32 -2
32 -4 0 -64 -43 -132 -95z"/>
<path d="M5240 4326 c-30 -13 -255 -105 -500 -205 -245 -100 -451 -186 -459
-190 -20 -13 -6 -31 113 -159 53 -56 96 -105 96 -108 0 -3 -89 -103 -197 -223
-109 -119 -405 -446 -659 -726 -254 -281 -468 -516 -477 -524 -20 -16 -5 -27
-297 223 -107 91 -197 166 -201 166 -5 0 -601 -716 -1518 -1825 -173 -209
-321 -389 -330 -399 -27 -32 -3 -15 305 216 159 120 296 218 304 218 7 0 86
-45 175 -100 421 -260 763 -397 1195 -479 192 -36 325 -44 644 -38 336 6 416
15 671 77 455 110 839 296 1225 596 143 111 411 375 520 513 285 363 488 777
604 1236 46 184 87 473 85 605 -1 63 -2 60 -25 -67 -114 -635 -396 -1184 -831
-1619 -725 -724 -1762 -1016 -2773 -780 -288 67 -620 208 -865 366 -127 83
-127 82 -70 122 26 18 172 125 324 238 152 113 299 222 326 242 l51 37 129
-116 c72 -64 192 -175 268 -246 117 -110 140 -128 151 -116 7 8 333 392 723
854 835 986 1022 1205 1044 1219 13 7 44 -6 135 -57 115 -64 119 -65 126 -44
9 31 48 489 78 929 13 197 14 188 -12 188 -13 -1 -48 -11 -78 -24z"/>
<path d="M2150 3820 c-74 -31 -223 -88 -331 -126 l-197 -69 -12 -70 c-6 -38
-40 -257 -76 -485 -35 -228 -85 -542 -110 -698 l-45 -283 57 -77 c146 -194
237 -307 248 -310 18 -4 353 373 360 405 7 34 93 603 142 938 45 308 112 760
119 803 4 23 2 32 -7 31 -7 -1 -74 -27 -148 -59z"/>
</g>
</svg>
