<svg width="1723" height="1725" viewBox="0 0 1723 1725" fill="none" xmlns="http://www.w3.org/2000/svg">
<path fill-rule="evenodd" clip-rule="evenodd" d="M392.003 786.27C392.189 785.15 393.006 784.22 394.09 783.89C461.642 762.92 503.043 746.98 575.238 717.5C577.405 716.61 579.727 718.43 579.357 720.74L502.948 1198.35L414.436 1306.03C412.829 1307.97 409.851 1307.96 408.258 1306.01L322.492 1201.43L392.003 786.27Z" fill="#893216"/>
<path d="M583.001 1098.79C582.54 1101.77 586.269 1103.49 588.238 1101.21L674.745 1000.88L759.965 1069.79C761.765 1071.24 764.455 1070.21 764.815 1067.93L847.365 549.6C847.795 546.878 844.635 545.059 842.495 546.795C782.435 595.466 730.665 632.03 648.345 682.74C647.605 683.2 647.085 683.97 646.945 684.84L583.001 1098.79Z" fill="#893216"/>
<path d="M1041.26 861.9L836.815 1077.92C834.115 1080.77 829.355 1078.44 829.955 1074.56L922.905 473.457C923.025 472.65 923.405 471.894 923.965 471.302C966.255 426.915 996.115 393.671 1029.72 348.004C1053.04 316.321 1075.89 284.005 1120.7 210.948C1134.99 187.643 1142.64 172.418 1147.26 165.173C1148.84 162.695 1151.22 163.787 1150.95 166.714C1149.98 177.461 1147.1 197.546 1142.56 226.541V226.544L1041.26 861.9Z" fill="#893216"/>
<path d="M857.465 0.330086C393.259 -6.97691 0.658203 385.73 0.658203 861.18C0.658203 1108.31 104.278 1331.19 270.368 1488.61L374.667 1362.5C227.07 1218.22 135.464 1016.96 135.464 794.31C135.464 380.089 443.672 47.4701 857.465 0.330086Z" fill="#1D3B7E"/>
<path fill-rule="evenodd" clip-rule="evenodd" d="M1300.56 868.58C1300.56 868.58 1317.92 878.81 1381.05 907.85L1398.67 589.412L1109.52 708.62C1134.33 743.06 1167.97 776.71 1167.97 776.71L804.665 1176.28L675.935 1067.77C674.195 1066.54 673.285 1066.3 671.765 1067.77L172.601 1670.99C170.838 1672.61 170.504 1673.29 170.52 1674.26C171.69 1674.78 172.948 1674.67 175.574 1674.26L341.157 1549.92L477.668 1445.77L679.205 1299.07L819.825 1427.5L823.395 1430.47L826.955 1426.91L1138.24 1059.44L1300.56 868.58Z" fill="#893216"/>
<path d="M930.625 1589.04C762.035 1589.04 606.16 1535.56 477.668 1445.77L341.157 1549.92C485.962 1660.01 666.885 1724.77 862.715 1724.77C1336.06 1724.77 1725.47 1336.35 1722.38 868.47C1676.26 1275.59 1344.84 1589.04 930.625 1589.04Z" fill="#1D3B7E"/>
</svg>
